<svg width="99" height="99" viewBox="0 0 99 99" fill="none" xmlns="http://www.w3.org/2000/svg">
<rect opacity="0.5" width="99" height="99" rx="10" fill="#DDF2FF"/>
<path d="M60.9582 71.125V66.5417C60.9582 64.1105 59.9924 61.7789 58.2733 60.0599C56.5542 58.3408 54.2227 57.375 51.7915 57.375H33.4582C31.027 57.375 28.6954 58.3408 26.9764 60.0599C25.2573 61.7789 24.2915 64.1105 24.2915 66.5417V71.125" stroke="#008CE7" stroke-width="4" stroke-linecap="round" stroke-linejoin="round"/>
<path d="M42.6252 48.2083C47.6878 48.2083 51.7918 44.1043 51.7918 39.0417C51.7918 33.9791 47.6878 29.875 42.6252 29.875C37.5626 29.875 33.4585 33.9791 33.4585 39.0417C33.4585 44.1043 37.5626 48.2083 42.6252 48.2083Z" stroke="#008CE7" stroke-width="4" stroke-linecap="round" stroke-linejoin="round"/>
<path d="M74.7085 71.1249V66.5416C74.707 64.5106 74.031 62.5375 72.7866 60.9323C71.5423 59.3271 69.8 58.1806 67.8335 57.6729" stroke="#008CE7" stroke-width="4" stroke-linecap="round" stroke-linejoin="round"/>
<path d="M58.6665 30.1729C60.6383 30.6777 62.386 31.8245 63.634 33.4323C64.8821 35.0402 65.5595 37.0177 65.5595 39.0531C65.5595 41.0884 64.8821 43.066 63.634 44.6738C62.386 46.2817 60.6383 47.4284 58.6665 47.9333" stroke="#008CE7" stroke-width="4" stroke-linecap="round" stroke-linejoin="round"/>
</svg>
