<svg width="31" height="32" viewBox="0 0 31 32" fill="none" xmlns="http://www.w3.org/2000/svg">
<path d="M14.9964 0.998535H15.9171C19.6793 0.998535 23.2435 2.59746 26.6096 5.7953C28.9758 8.66643 30.2777 11.2653 30.5153 13.5919C30.6935 14.6909 30.7826 15.3888 30.7826 15.6858V16.9482C30.7826 18.9876 30.0896 21.3489 28.7036 24.0319C26.6839 27.3387 23.8078 29.6356 20.0753 30.9226C18.1843 31.4078 16.7042 31.6503 15.635 31.6503H15.2785C11.3679 31.6503 7.73935 30.0762 4.393 26.9278C1.55157 23.7795 0.130859 20.1213 0.130859 15.9532V15.775C0.130859 15.6363 0.160561 15.5175 0.219963 15.4185C0.219963 15.3492 0.190262 15.3146 0.130859 15.3146C0.516977 12.3642 1.30406 9.97824 2.49212 8.15656C4.3732 5.09732 7.27403 2.91922 11.1946 1.62226C12.6599 1.20644 13.9271 0.998535 14.9964 0.998535ZM12.9173 10.7851L13.0064 13.5919C13.0064 13.681 12.9173 13.7751 12.7391 13.8741H11.1946V17.0373H12.7391C12.8282 17.0373 12.9173 17.1313 13.0064 17.3194V25.116L13.0509 25.6655H16.2735V17.2303C16.2933 17.1016 16.3527 17.0373 16.4517 17.0373H19.0803C19.1991 17.0373 19.3526 16.0423 19.5407 14.0523V13.8741H16.4517C16.3329 13.8741 16.2735 13.8147 16.2735 13.6959V11.5128C16.2735 10.5822 16.8181 10.0673 17.9071 9.96834H19.7189V7.25067C19.7189 7.07246 19.0853 6.98336 17.818 6.98336H17.3576C15.2686 6.98336 13.9073 7.76549 13.2737 9.32976C13.1549 9.65648 13.0361 10.1416 12.9173 10.7851Z" fill="white"/>
</svg>
