<svg width="54" height="54" viewBox="0 0 54 54" fill="none" xmlns="http://www.w3.org/2000/svg">
<rect width="54" height="54" rx="7" fill="#008CE7"/>
<path fill-rule="evenodd" clip-rule="evenodd" d="M27.7371 12.5528C27.3038 12.2158 26.697 12.2158 26.2637 12.5528L14.1137 22.0028C13.8214 22.2302 13.6504 22.5797 13.6504 22.95V37.8C13.6504 38.8344 14.0613 39.8264 14.7927 40.5578C15.5241 41.2892 16.516 41.7 17.5504 41.7H22.9473C22.9484 41.7 22.9494 41.7001 22.9504 41.7001C22.9514 41.7001 22.9524 41.7 22.9534 41.7H31.0473C31.0483 41.7 31.0494 41.7001 31.0504 41.7001C31.0514 41.7001 31.0524 41.7 31.0534 41.7H36.4504C37.4847 41.7 38.4767 41.2892 39.2081 40.5578C39.9395 39.8264 40.3504 38.8344 40.3504 37.8V22.95C40.3504 22.5797 40.1794 22.2302 39.8871 22.0028L27.7371 12.5528ZM32.2504 39.3H36.4504C36.8482 39.3 37.2297 39.142 37.511 38.8607C37.7924 38.5794 37.9504 38.1979 37.9504 37.8V23.5369L27.0004 15.0203L16.0504 23.5369V37.8C16.0504 38.1979 16.2084 38.5794 16.4897 38.8607C16.771 39.142 17.1526 39.3 17.5504 39.3H21.7504V27C21.7504 26.3373 22.2876 25.8 22.9504 25.8H31.0504C31.7131 25.8 32.2504 26.3373 32.2504 27V39.3ZM24.1504 39.3H29.8504V28.2H24.1504V39.3Z" fill="white"/>
</svg>
