<svg width="99" height="99" viewBox="0 0 99 99" fill="none" xmlns="http://www.w3.org/2000/svg">
<rect opacity="0.5" width="99" height="99" rx="10" fill="#DDF2FF"/>
<path d="M69.7585 32.5649C68.588 31.3938 67.1983 30.4649 65.6687 29.8311C64.1391 29.1973 62.4996 28.8711 60.8439 28.8711C59.1882 28.8711 57.5488 29.1973 56.0192 29.8311C54.4896 30.4649 53.0998 31.3938 51.9294 32.5649L49.5002 34.994L47.071 32.5649C44.7067 30.2006 41.5001 28.8723 38.1564 28.8723C34.8128 28.8723 31.6062 30.2006 29.2419 32.5649C26.8776 34.9292 25.5493 38.1358 25.5493 41.4794C25.5493 44.8231 26.8776 48.0297 29.2419 50.394L31.671 52.8232L49.5002 70.6524L67.3294 52.8232L69.7585 50.394C70.9296 49.2235 71.8585 47.8338 72.4923 46.3042C73.1261 44.7746 73.4523 43.1351 73.4523 41.4794C73.4523 39.8237 73.1261 38.1843 72.4923 36.6547C71.8585 35.1251 70.9296 33.7353 69.7585 32.5649V32.5649Z" stroke="#008CE7" stroke-width="4" stroke-linecap="round" stroke-linejoin="round"/>
</svg>
