<svg width="32" height="32" viewBox="0 0 32 32" fill="none" xmlns="http://www.w3.org/2000/svg">
<path d="M14.5927 0.998535H16.7757C19.1122 0.998535 21.7705 1.96383 24.7505 3.89442C26.9979 5.6468 28.6266 7.67144 29.6364 9.96834C30.5472 12.1563 31.0027 14.0028 31.0027 15.5076V16.7699C31.0027 20.1559 29.6116 23.5122 26.8296 26.8387C23.6021 29.9771 19.8548 31.5464 15.5877 31.5464C10.2612 31.5464 5.90997 29.0663 2.53392 24.1062C1.08846 21.4331 0.365723 18.8045 0.365723 16.2205C0.365723 11.9633 2.1181 8.12686 5.62286 4.7112C8.89001 2.23609 11.8799 0.998535 14.5927 0.998535ZM7.52375 14.2305V18.953C7.52375 21.5271 8.34053 23.2448 9.97411 24.1062C10.7067 24.522 13.063 24.6755 17.043 24.5666C20.0924 24.5666 21.8447 24.2349 22.3002 23.5716C23.3298 22.7498 23.8446 21.3885 23.8446 19.4876V13.4137C23.8446 11.0178 22.9981 9.44857 21.3052 8.70603L20.1765 8.33477L19.033 8.24566H12.4245C10.0682 8.24566 8.49399 9.39412 7.70195 11.691C7.58315 12.394 7.52375 13.2404 7.52375 14.2305ZM12.6918 9.70103H19.033C21.3299 9.70103 22.4784 10.9089 22.4784 13.3246V19.7549C22.1715 21.9924 21.2359 23.1112 19.6716 23.1112H17.043C15.8154 23.1112 14.5184 23.1409 13.1522 23.2003C10.875 23.2003 9.54344 22.4776 9.15732 21.0321C9.03852 20.2302 8.97911 19.0223 8.97911 17.4085V15.4037C8.97911 12.3841 9.22167 10.8742 9.7068 10.8742C10.1919 10.0921 11.1869 9.70103 12.6918 9.70103ZM19.1221 12.1514C19.3894 12.7553 19.726 13.0573 20.132 13.0573C20.5379 13.0573 20.8696 12.7553 21.127 12.1514C20.9884 11.4188 20.622 11.0524 20.028 11.0524C19.4241 11.2405 19.1221 11.6069 19.1221 12.1514ZM11.5186 16.5026C11.5186 18.453 12.6373 19.8094 14.8748 20.5717H16.6866C18.8548 19.7896 19.9389 18.4035 19.9389 16.4135V16.2205C19.9389 15.0918 19.3647 14.0374 18.2162 13.0573C17.4341 12.5128 16.6223 12.2405 15.7807 12.2405H15.6916C13.8204 12.2405 12.5185 13.2058 11.7859 15.1364C11.6869 15.2651 11.5978 15.7205 11.5186 16.5026ZM15.6916 13.681H15.7807C17.0876 13.681 17.9638 14.379 18.4093 15.775C18.4687 15.8542 18.4984 16.067 18.4984 16.4135C18.2113 18.2847 17.3054 19.2203 15.7807 19.2203C14.5729 19.2203 13.6967 18.6164 13.1522 17.4085C13.0729 17.3095 13.0086 17.0076 12.9591 16.5026C13.1769 14.6216 14.0877 13.681 15.6916 13.681Z" fill="white"/>
</svg>
