<svg width="31" height="32" viewBox="0 0 31 32" fill="none" xmlns="http://www.w3.org/2000/svg">
<path d="M15.4812 0.998535H16.194C19.3918 0.998535 22.5847 2.23114 25.7727 4.69635C28.1389 7.07246 29.5844 9.21096 30.1091 11.1118C30.4655 11.9039 30.7031 12.8098 30.8219 13.8295C30.9407 14.8394 31.0001 15.4977 31.0001 15.8047V16.6066V17.2452C30.7625 19.4332 30.2823 21.2697 29.5596 22.7548C27.9656 25.9823 25.5301 28.4178 22.2531 30.0613C19.9067 31.0315 17.7979 31.5167 15.9267 31.5167H15.7485C11.9665 31.5167 8.5063 30.1306 5.36785 27.3585C3.39767 25.3091 2.16506 23.5023 1.67004 21.938C1.12551 20.7202 0.764146 19.1857 0.585938 17.3343V15.4334C0.585938 12.3246 1.87795 9.1664 4.46196 5.95866C7.84792 2.65191 11.521 0.998535 15.4812 0.998535ZM9.70425 10.7406V11.2901C9.87256 12.191 10.4418 12.6415 11.4121 12.6415C12.2041 12.6415 12.7486 12.191 13.0457 11.2901V11.2009C13.0457 10.2703 12.4714 9.72578 11.323 9.56737C10.62 9.56737 10.0805 9.95844 9.70425 10.7406ZM17.4712 14.7206H17.2781V13.8147H14.3971V22.3984C14.4169 22.5172 14.4763 22.5766 14.5753 22.5766H17.0999C17.2187 22.5766 17.2781 22.5172 17.2781 22.3984V17.7946C17.4266 16.5274 17.9414 15.8938 18.8226 15.8938C19.8423 15.8938 20.3522 16.5274 20.3522 17.7946V22.3984C20.372 22.5172 20.4314 22.5766 20.5304 22.5766H23.2481V16.8888C23.2481 15.869 22.7629 14.9334 21.7927 14.082C21.0601 13.785 20.6096 13.6365 20.4413 13.6365H19.5354C18.8325 13.6662 18.1444 14.0275 17.4712 14.7206ZM9.88246 13.9929V22.3984C9.90226 22.5172 9.96166 22.5766 10.0607 22.5766H12.5853C12.7041 22.5766 12.7635 22.5172 12.7635 22.3984V14.1711L12.5853 13.8147H10.0607C9.94186 13.8345 9.88246 13.8939 9.88246 13.9929Z" fill="white"/>
</svg>
