<svg width="61" height="61" viewBox="0 0 61 61" fill="none" xmlns="http://www.w3.org/2000/svg">
<rect opacity="0.5" width="61" height="61" rx="7" fill="#EAF5FD"/>
<path fill-rule="evenodd" clip-rule="evenodd" d="M16.2666 18.9776C16.2666 18.229 16.8735 17.6221 17.6222 17.6221H25.7555C27.5531 17.6221 29.277 18.3362 30.5481 19.6072C31.8192 20.8783 32.5333 22.6023 32.5333 24.3998V43.3776C32.5333 44.1263 31.9264 44.7332 31.1777 44.7332C30.4291 44.7332 29.8222 44.1263 29.8222 43.3776C29.8222 42.6586 29.5365 41.969 29.0281 41.4606C28.5197 40.9522 27.8301 40.6665 27.111 40.6665H17.6222C16.8735 40.6665 16.2666 40.0596 16.2666 39.311V18.9776ZM29.8222 38.6818V24.3998C29.8222 23.3213 29.3937 22.2869 28.6311 21.5243C27.8684 20.7616 26.834 20.3332 25.7555 20.3332H18.9777V37.9554H27.111C28.0711 37.9554 29.0049 38.21 29.8222 38.6818Z" fill="#008CE7"/>
<path fill-rule="evenodd" clip-rule="evenodd" d="M31.8074 19.6067C33.0785 18.3357 34.8025 17.6216 36.6 17.6216H44.7334C45.482 17.6216 46.0889 18.2285 46.0889 18.9771V39.3105C46.0889 40.0591 45.482 40.666 44.7334 40.666H35.2445C34.5255 40.666 33.8359 40.9517 33.3274 41.4601C32.819 41.9685 32.5334 42.6581 32.5334 43.3771C32.5334 44.1258 31.9265 44.7327 31.1778 44.7327C30.4292 44.7327 29.8223 44.1258 29.8223 43.3771V24.3994C29.8223 22.6018 30.5364 20.8778 31.8074 19.6067ZM32.5334 38.6813C33.3506 38.2095 34.2844 37.9549 35.2445 37.9549H43.3778V20.3327H36.6C35.5215 20.3327 34.4871 20.7611 33.7245 21.5238C32.9618 22.2864 32.5334 23.3208 32.5334 24.3994V38.6813Z" fill="#008CE7"/>
</svg>
