<svg width="29" height="23" viewBox="0 0 29 23" fill="none" xmlns="http://www.w3.org/2000/svg">
<path d="M6.99412 10.8333C8.64314 11 9.97941 11.6389 11.0029 12.75C12.0833 13.8056 12.6235 15.1389 12.6235 16.75C12.6235 18.5278 12.0265 20.0278 10.8324 21.25C9.6951 22.4167 8.27353 23 6.56765 23C4.63431 23 3.04216 22.3056 1.79118 20.9167C0.597059 19.5278 0 17.5 0 14.8333C0 9.61111 1.87647 5.02778 5.62941 1.08333C6.31177 0.36111 7.10784 0 8.01765 0C8.81373 0 9.52451 0.305554 10.15 0.916664C10.8324 1.47222 11.1735 2.13889 11.1735 2.91666C11.1735 3.58333 10.8892 4.22222 10.3206 4.83333C8.61471 6.61111 7.50588 8.61111 6.99412 10.8333ZM23.3706 10.8333C25.0196 11 26.3559 11.6389 27.3794 12.75C28.4598 13.8056 29 15.1389 29 16.75C29 18.5278 28.4029 20.0278 27.2088 21.25C26.0716 22.4167 24.65 23 22.9441 23C21.0108 23 19.4186 22.3056 18.1676 20.9167C16.9735 19.5278 16.3765 17.5 16.3765 14.8333C16.3765 9.61111 18.2529 5.02778 22.0059 1.08333C22.6882 0.36111 23.4843 0 24.3941 0C25.1902 0 25.901 0.305554 26.5265 0.916664C27.2088 1.47222 27.55 2.13889 27.55 2.91666C27.55 3.58333 27.2657 4.22222 26.6971 4.83333C24.9912 6.61111 23.8824 8.61111 23.3706 10.8333Z" fill="#008CE7"/>
</svg>
