<svg width="31" height="32" viewBox="0 0 31 32" fill="none" xmlns="http://www.w3.org/2000/svg">
<path d="M15.014 0.998535H15.6378C19.0435 0.998535 22.3305 2.29549 25.4986 4.88941C28.8648 8.30507 30.5478 11.889 30.5478 15.6413V17.0967C30.5478 19.2748 29.7063 21.834 28.0232 24.7745C25.9441 27.7446 23.1126 29.794 19.5286 30.9226C17.8654 31.3385 16.4793 31.5464 15.3704 31.5464H15.2813C11.1331 31.5464 7.42534 29.9227 4.15819 26.6753C1.38606 23.5072 0 20.042 0 16.2799C0 12.2603 1.56922 8.58228 4.70766 5.24583C7.97481 2.4143 11.4103 0.998535 15.014 0.998535ZM15.9199 13.6513V14.379C15.9199 14.4978 15.8556 14.5572 15.7269 14.5572C13.8359 14.2998 12.2122 13.6365 10.8558 12.5672L9.59353 11.394H9.48958C9.48958 11.493 9.37077 11.7356 9.13316 12.1217V13.2058C9.21237 13.8196 9.63314 14.5126 10.3955 15.2849V15.374C9.97965 15.374 9.55888 15.2552 9.13316 15.0176V15.1067C9.13316 16.265 9.8856 17.26 11.3905 18.0917L11.2123 18.1808H10.7667L10.3064 18.0917V18.2699C10.9994 19.5371 11.8756 20.1708 12.9349 20.1708V20.4381C11.7469 21.1608 10.5687 21.5222 9.40048 21.5222H8.86585V21.7004C10.5687 22.4825 12.0439 22.8736 13.2914 22.8736C15.9051 22.8736 18.1327 21.8192 19.9742 19.7104C21.3008 17.8689 21.9641 16.1215 21.9641 14.4681V13.8444C22.9245 12.9236 23.4096 12.4088 23.4195 12.2999V12.2108C23.073 12.389 22.5879 12.5425 21.9641 12.6712L21.875 12.4781C22.4394 12.1514 22.8601 11.7009 23.1373 11.1267V11.0376H23.0482C22.1572 11.4633 21.6176 11.6762 21.4295 11.6762H21.1622C20.4989 11.1316 19.895 10.8297 19.3504 10.7703H18.6227C17.6129 10.7703 16.8011 11.3396 16.1872 12.4781C16.009 12.7751 15.9199 13.1662 15.9199 13.6513Z" fill="white"/>
</svg>
