<svg width="45" height="45" viewBox="0 0 45 45" fill="none" xmlns="http://www.w3.org/2000/svg">
<rect opacity="0.5" width="45" height="45" rx="7" fill="#EAF5FD"/>
<path fill-rule="evenodd" clip-rule="evenodd" d="M11.125 16.875C11.125 16.1846 11.6846 15.625 12.375 15.625H24.75C25.4404 15.625 26 16.1846 26 16.875V28.125C26 28.8154 25.4404 29.375 24.75 29.375H12.375C11.6846 29.375 11.125 28.8154 11.125 28.125V16.875ZM12.375 13.625C10.5801 13.625 9.125 15.0801 9.125 16.875V28.125C9.125 29.9199 10.5801 31.375 12.375 31.375H24.75C26.5449 31.375 28 29.9199 28 28.125V24.4432L34.2938 28.9388C34.5986 29.1565 34.9995 29.1856 35.3326 29.0142C35.6657 28.8428 35.875 28.4996 35.875 28.125V16.875C35.875 16.5004 35.6657 16.1573 35.3326 15.9859C34.9995 15.8145 34.5986 15.8436 34.2938 16.0613L28 20.5569V16.875C28 15.0801 26.5449 13.625 24.75 13.625H12.375ZM33.875 26.1818L28.7205 22.5L33.875 18.8182V26.1818Z" fill="#008CE7"/>
</svg>
